<mxfile host="app.diagrams.net" agent="Mozilla/5.0 (Windows NT 10.0; Win64; x64) AppleWebKit/537.36 (KHTML, like Gecko) Chrome/136.0.0.0 Safari/537.36 Edg/136.0.0.0" version="27.0.8">
  <diagram name="Page-1" id="hRBg6D-8i8BGxrYlNCZB">
    <mxGraphModel dx="2600" dy="1133" grid="1" gridSize="10" guides="1" tooltips="1" connect="1" arrows="1" fold="1" page="1" pageScale="1" pageWidth="827" pageHeight="1169" math="0" shadow="0">
      <root>
        <mxCell id="0" />
        <mxCell id="1" parent="0" />
        <mxCell id="HyOEWf35h8I8pqa0yyZo-1" value="Home Page" style="rounded=1;whiteSpace=wrap;html=1;" vertex="1" parent="1">
          <mxGeometry x="354" width="120" height="60" as="geometry" />
        </mxCell>
        <mxCell id="HyOEWf35h8I8pqa0yyZo-3" value="" style="endArrow=none;html=1;rounded=0;" edge="1" parent="1">
          <mxGeometry width="50" height="50" relative="1" as="geometry">
            <mxPoint x="70" y="150" as="sourcePoint" />
            <mxPoint x="760" y="150" as="targetPoint" />
          </mxGeometry>
        </mxCell>
        <mxCell id="HyOEWf35h8I8pqa0yyZo-4" value="" style="endArrow=classic;html=1;rounded=0;" edge="1" parent="1">
          <mxGeometry width="50" height="50" relative="1" as="geometry">
            <mxPoint x="70" y="150" as="sourcePoint" />
            <mxPoint x="70" y="210" as="targetPoint" />
          </mxGeometry>
        </mxCell>
        <mxCell id="HyOEWf35h8I8pqa0yyZo-5" value="" style="endArrow=classic;html=1;rounded=0;" edge="1" parent="1">
          <mxGeometry width="50" height="50" relative="1" as="geometry">
            <mxPoint x="600" y="150" as="sourcePoint" />
            <mxPoint x="600" y="210" as="targetPoint" />
          </mxGeometry>
        </mxCell>
        <mxCell id="HyOEWf35h8I8pqa0yyZo-6" value="" style="endArrow=classic;html=1;rounded=0;" edge="1" parent="1">
          <mxGeometry width="50" height="50" relative="1" as="geometry">
            <mxPoint x="240" y="150" as="sourcePoint" />
            <mxPoint x="240" y="210" as="targetPoint" />
          </mxGeometry>
        </mxCell>
        <mxCell id="HyOEWf35h8I8pqa0yyZo-7" value="" style="endArrow=classic;html=1;rounded=0;" edge="1" parent="1">
          <mxGeometry width="50" height="50" relative="1" as="geometry">
            <mxPoint x="414" y="150" as="sourcePoint" />
            <mxPoint x="414" y="210" as="targetPoint" />
          </mxGeometry>
        </mxCell>
        <mxCell id="HyOEWf35h8I8pqa0yyZo-8" value="" style="endArrow=classic;html=1;rounded=0;" edge="1" parent="1">
          <mxGeometry width="50" height="50" relative="1" as="geometry">
            <mxPoint x="760" y="150" as="sourcePoint" />
            <mxPoint x="760" y="210" as="targetPoint" />
          </mxGeometry>
        </mxCell>
        <mxCell id="HyOEWf35h8I8pqa0yyZo-21" value="" style="edgeStyle=orthogonalEdgeStyle;rounded=0;orthogonalLoop=1;jettySize=auto;html=1;" edge="1" parent="1" source="HyOEWf35h8I8pqa0yyZo-10">
          <mxGeometry relative="1" as="geometry">
            <mxPoint x="760" y="330" as="targetPoint" />
          </mxGeometry>
        </mxCell>
        <mxCell id="HyOEWf35h8I8pqa0yyZo-10" value="Contact Us" style="rounded=1;whiteSpace=wrap;html=1;" vertex="1" parent="1">
          <mxGeometry x="700" y="210" width="120" height="60" as="geometry" />
        </mxCell>
        <mxCell id="HyOEWf35h8I8pqa0yyZo-11" value="Abouts Us" style="rounded=1;whiteSpace=wrap;html=1;" vertex="1" parent="1">
          <mxGeometry x="540" y="210" width="120" height="60" as="geometry" />
        </mxCell>
        <mxCell id="HyOEWf35h8I8pqa0yyZo-12" value="Highlights" style="rounded=1;whiteSpace=wrap;html=1;" vertex="1" parent="1">
          <mxGeometry x="354" y="210" width="120" height="60" as="geometry" />
        </mxCell>
        <mxCell id="HyOEWf35h8I8pqa0yyZo-13" value="Rankings" style="rounded=1;whiteSpace=wrap;html=1;" vertex="1" parent="1">
          <mxGeometry x="180" y="210" width="120" height="60" as="geometry" />
        </mxCell>
        <mxCell id="HyOEWf35h8I8pqa0yyZo-14" value="Home" style="rounded=1;whiteSpace=wrap;html=1;" vertex="1" parent="1">
          <mxGeometry x="10" y="210" width="120" height="60" as="geometry" />
        </mxCell>
        <mxCell id="HyOEWf35h8I8pqa0yyZo-15" value="" style="endArrow=classic;html=1;rounded=0;exitX=0.5;exitY=1;exitDx=0;exitDy=0;" edge="1" parent="1" source="HyOEWf35h8I8pqa0yyZo-1">
          <mxGeometry width="50" height="50" relative="1" as="geometry">
            <mxPoint x="414" y="70" as="sourcePoint" />
            <mxPoint x="414" y="150" as="targetPoint" />
          </mxGeometry>
        </mxCell>
        <mxCell id="HyOEWf35h8I8pqa0yyZo-16" value="" style="endArrow=classic;html=1;rounded=0;" edge="1" parent="1">
          <mxGeometry width="50" height="50" relative="1" as="geometry">
            <mxPoint x="680" y="330" as="sourcePoint" />
            <mxPoint x="680" y="390" as="targetPoint" />
          </mxGeometry>
        </mxCell>
        <mxCell id="HyOEWf35h8I8pqa0yyZo-17" value="" style="endArrow=classic;html=1;rounded=0;" edge="1" parent="1">
          <mxGeometry width="50" height="50" relative="1" as="geometry">
            <mxPoint x="570" y="330" as="sourcePoint" />
            <mxPoint x="570" y="390" as="targetPoint" />
          </mxGeometry>
        </mxCell>
        <mxCell id="HyOEWf35h8I8pqa0yyZo-18" value="" style="endArrow=classic;html=1;rounded=0;" edge="1" parent="1">
          <mxGeometry width="50" height="50" relative="1" as="geometry">
            <mxPoint x="926" y="330" as="sourcePoint" />
            <mxPoint x="926" y="390" as="targetPoint" />
          </mxGeometry>
        </mxCell>
        <mxCell id="HyOEWf35h8I8pqa0yyZo-19" value="Call" style="rounded=1;whiteSpace=wrap;html=1;" vertex="1" parent="1">
          <mxGeometry x="620" y="390" width="120" height="60" as="geometry" />
        </mxCell>
        <mxCell id="HyOEWf35h8I8pqa0yyZo-22" value="" style="endArrow=none;html=1;rounded=0;" edge="1" parent="1">
          <mxGeometry width="50" height="50" relative="1" as="geometry">
            <mxPoint x="570" y="330" as="sourcePoint" />
            <mxPoint x="930" y="330" as="targetPoint" />
          </mxGeometry>
        </mxCell>
        <mxCell id="HyOEWf35h8I8pqa0yyZo-27" value="" style="endArrow=classic;html=1;rounded=0;" edge="1" parent="1">
          <mxGeometry width="50" height="50" relative="1" as="geometry">
            <mxPoint x="820" y="330" as="sourcePoint" />
            <mxPoint x="820" y="390" as="targetPoint" />
          </mxGeometry>
        </mxCell>
        <mxCell id="HyOEWf35h8I8pqa0yyZo-28" value="Mail" style="rounded=1;whiteSpace=wrap;html=1;" vertex="1" parent="1">
          <mxGeometry x="760" y="390" width="120" height="60" as="geometry" />
        </mxCell>
        <mxCell id="HyOEWf35h8I8pqa0yyZo-29" value="&lt;span style=&quot;white-space: pre;&quot;&gt;&#x9;&lt;/span&gt;WhatsApp&lt;span style=&quot;white-space: pre;&quot;&gt;&#x9;&lt;/span&gt;" style="rounded=1;whiteSpace=wrap;html=1;" vertex="1" parent="1">
          <mxGeometry x="480" y="390" width="120" height="60" as="geometry" />
        </mxCell>
        <mxCell id="HyOEWf35h8I8pqa0yyZo-30" value="Instagram" style="rounded=1;whiteSpace=wrap;html=1;" vertex="1" parent="1">
          <mxGeometry x="900" y="390" width="120" height="60" as="geometry" />
        </mxCell>
        <mxCell id="HyOEWf35h8I8pqa0yyZo-31" value="" style="endArrow=classic;html=1;rounded=0;" edge="1" parent="1">
          <mxGeometry width="50" height="50" relative="1" as="geometry">
            <mxPoint x="80" y="340" as="sourcePoint" />
            <mxPoint x="80" y="400" as="targetPoint" />
          </mxGeometry>
        </mxCell>
        <mxCell id="HyOEWf35h8I8pqa0yyZo-32" value="" style="endArrow=classic;html=1;rounded=0;" edge="1" parent="1">
          <mxGeometry width="50" height="50" relative="1" as="geometry">
            <mxPoint x="-30" y="340" as="sourcePoint" />
            <mxPoint x="-30" y="400" as="targetPoint" />
          </mxGeometry>
        </mxCell>
        <mxCell id="HyOEWf35h8I8pqa0yyZo-33" value="" style="endArrow=classic;html=1;rounded=0;" edge="1" parent="1">
          <mxGeometry width="50" height="50" relative="1" as="geometry">
            <mxPoint x="326" y="340" as="sourcePoint" />
            <mxPoint x="326" y="400" as="targetPoint" />
          </mxGeometry>
        </mxCell>
        <mxCell id="HyOEWf35h8I8pqa0yyZo-34" value="Australia - Wiki" style="rounded=1;whiteSpace=wrap;html=1;" vertex="1" parent="1">
          <mxGeometry x="20" y="400" width="120" height="60" as="geometry" />
        </mxCell>
        <mxCell id="HyOEWf35h8I8pqa0yyZo-35" value="" style="endArrow=none;html=1;rounded=0;" edge="1" parent="1">
          <mxGeometry width="50" height="50" relative="1" as="geometry">
            <mxPoint x="-140" y="340" as="sourcePoint" />
            <mxPoint x="330" y="340" as="targetPoint" />
          </mxGeometry>
        </mxCell>
        <mxCell id="HyOEWf35h8I8pqa0yyZo-36" value="" style="endArrow=classic;html=1;rounded=0;" edge="1" parent="1">
          <mxGeometry width="50" height="50" relative="1" as="geometry">
            <mxPoint x="220" y="340" as="sourcePoint" />
            <mxPoint x="220" y="400" as="targetPoint" />
          </mxGeometry>
        </mxCell>
        <mxCell id="HyOEWf35h8I8pqa0yyZo-37" value="Bangladesh&amp;nbsp;- Wiki" style="rounded=1;whiteSpace=wrap;html=1;" vertex="1" parent="1">
          <mxGeometry x="160" y="400" width="120" height="60" as="geometry" />
        </mxCell>
        <mxCell id="HyOEWf35h8I8pqa0yyZo-38" value="India - Wiki" style="rounded=1;whiteSpace=wrap;html=1;" vertex="1" parent="1">
          <mxGeometry x="-120" y="400" width="120" height="60" as="geometry" />
        </mxCell>
        <mxCell id="HyOEWf35h8I8pqa0yyZo-39" value="Ireland&amp;nbsp;- Wiki" style="rounded=1;whiteSpace=wrap;html=1;" vertex="1" parent="1">
          <mxGeometry x="300" y="400" width="120" height="60" as="geometry" />
        </mxCell>
        <mxCell id="HyOEWf35h8I8pqa0yyZo-40" value="" style="endArrow=classic;html=1;rounded=0;exitX=0.5;exitY=1;exitDx=0;exitDy=0;" edge="1" parent="1" source="HyOEWf35h8I8pqa0yyZo-14">
          <mxGeometry width="50" height="50" relative="1" as="geometry">
            <mxPoint x="430" y="680" as="sourcePoint" />
            <mxPoint x="70" y="340" as="targetPoint" />
          </mxGeometry>
        </mxCell>
        <mxCell id="HyOEWf35h8I8pqa0yyZo-41" value="Zim - Wiki" style="rounded=1;whiteSpace=wrap;html=1;" vertex="1" parent="1">
          <mxGeometry x="90" y="520" width="120" height="60" as="geometry" />
        </mxCell>
        <mxCell id="HyOEWf35h8I8pqa0yyZo-42" value="WI - Wiki" style="rounded=1;whiteSpace=wrap;html=1;" vertex="1" parent="1">
          <mxGeometry x="230" y="520" width="120" height="60" as="geometry" />
        </mxCell>
        <mxCell id="HyOEWf35h8I8pqa0yyZo-43" value="South Africa - Wiki" style="rounded=1;whiteSpace=wrap;html=1;" vertex="1" parent="1">
          <mxGeometry x="-50" y="520" width="120" height="60" as="geometry" />
        </mxCell>
        <mxCell id="HyOEWf35h8I8pqa0yyZo-44" value="AFG - Wiki" style="rounded=1;whiteSpace=wrap;html=1;" vertex="1" parent="1">
          <mxGeometry x="-210" y="520" width="120" height="60" as="geometry" />
        </mxCell>
        <mxCell id="HyOEWf35h8I8pqa0yyZo-45" value="" style="endArrow=classic;html=1;rounded=0;entryX=0.5;entryY=0;entryDx=0;entryDy=0;" edge="1" parent="1" target="HyOEWf35h8I8pqa0yyZo-43">
          <mxGeometry width="50" height="50" relative="1" as="geometry">
            <mxPoint x="10" y="340" as="sourcePoint" />
            <mxPoint x="10" y="510" as="targetPoint" />
          </mxGeometry>
        </mxCell>
        <mxCell id="HyOEWf35h8I8pqa0yyZo-46" value="" style="endArrow=classic;html=1;rounded=0;entryX=0.5;entryY=0;entryDx=0;entryDy=0;" edge="1" parent="1" target="HyOEWf35h8I8pqa0yyZo-41">
          <mxGeometry width="50" height="50" relative="1" as="geometry">
            <mxPoint x="150" y="340" as="sourcePoint" />
            <mxPoint x="140" y="550" as="targetPoint" />
          </mxGeometry>
        </mxCell>
        <mxCell id="HyOEWf35h8I8pqa0yyZo-47" value="" style="endArrow=classic;html=1;rounded=0;entryX=0.5;entryY=0;entryDx=0;entryDy=0;" edge="1" parent="1" target="HyOEWf35h8I8pqa0yyZo-42">
          <mxGeometry width="50" height="50" relative="1" as="geometry">
            <mxPoint x="290" y="340" as="sourcePoint" />
            <mxPoint x="280" y="500" as="targetPoint" />
          </mxGeometry>
        </mxCell>
        <mxCell id="HyOEWf35h8I8pqa0yyZo-49" value="" style="endArrow=classic;html=1;rounded=0;entryX=0.583;entryY=0.167;entryDx=0;entryDy=0;entryPerimeter=0;" edge="1" parent="1" target="HyOEWf35h8I8pqa0yyZo-44">
          <mxGeometry width="50" height="50" relative="1" as="geometry">
            <mxPoint x="-140" y="340" as="sourcePoint" />
            <mxPoint x="-170" y="520" as="targetPoint" />
          </mxGeometry>
        </mxCell>
      </root>
    </mxGraphModel>
  </diagram>
</mxfile>
